<svg xmlns="http://www.w3.org/2000/svg" viewBox="0 0 100 110">
  <!-- Staff -->
  <rect x="47" y="16" width="6" height="75" rx="3" fill="#1565C0"/>
  <!-- Left wing -->
  <path d="M47 26 C44 16 26 10 12 17 C7 21 9 31 18 28 C30 24 43 25 47 33 Z" fill="#1565C0"/>
  <!-- Right wing -->
  <path d="M53 26 C56 16 74 10 88 17 C93 21 91 31 82 28 C70 24 57 25 53 33 Z" fill="#1565C0"/>
  <!-- Left snake -->
  <path d="M46 35 C28 41 28 53 46 55 C64 57 64 69 46 73 C36 77 37 83 42 88"
        stroke="#1565C0" stroke-width="5.5" stroke-linecap="round" fill="none"/>
  <!-- Right snake -->
  <path d="M54 35 C72 41 72 53 54 55 C36 57 36 69 54 73 C64 77 63 83 58 88"
        stroke="#1565C0" stroke-width="5.5" stroke-linecap="round" fill="none"/>
  <!-- Left snake head -->
  <ellipse cx="41" cy="91" rx="6" ry="4" fill="#1565C0" transform="rotate(-30 41 91)"/>
  <!-- Right snake head -->
  <ellipse cx="59" cy="91" rx="6" ry="4" fill="#1565C0" transform="rotate(30 59 91)"/>
</svg>
